# MagicaVoxel @ Ephtracy

# material
mtllib train pole-01.mtl
usemtl palette

# normals
vn -1 0 0
vn 1 0 0
vn 0 0 1
vn 0 0 -1
vn 0 -1 0
vn 0 1 0

# texcoords
vt 0.841797 0.5
vt 0.873047 0.5
vt 0.978516 0.5
vt 0.994141 0.5

# verts
v -14.5 22 2
v -14.5 22 1
v -14.5 27 2
v -14.5 27 1
v -13.5 21 2
v -13.5 21 1
v -13.5 22 2
v -13.5 22 1
v -13.5 24 4
v -13.5 24 2
v -13.5 26 4
v -13.5 26 2
v -13.5 27 2
v -13.5 27 1
v -13.5 28 2
v -13.5 28 1
v -12.5 20 2
v -12.5 20 1
v -12.5 21 2
v -12.5 21 1
v -12.5 23 3
v -12.5 23 2
v -12.5 24 3
v -12.5 24 2
v -12.5 26 5
v -12.5 26 4
v -12.5 26 2
v -12.5 27 5
v -12.5 27 2
v -12.5 28 2
v -12.5 28 1
v -12.5 29 2
v -12.5 29 1
v -11.5 22 3
v -11.5 22 2
v -11.5 23 3
v -11.5 23 2
v -11.5 26 1
v -11.5 26 -2
v -11.5 27 6
v -11.5 27 5
v -11.5 27 2
v -11.5 27 1
v -11.5 27 -2
v -11.5 28 6
v -11.5 28 2
v -9.5 25 1
v -9.5 25 -2
v -9.5 26 1
v -9.5 26 -2
v -8.5 26 5
v -8.5 26 3
v -8.5 27 5
v -8.5 27 3
v -7.5 24 4
v -7.5 24 3
v -7.5 26 4
v -7.5 26 3
v -4.5 24 1
v -4.5 24 -2
v -4.5 25 1
v -4.5 25 -2
v -2.5 24 2
v -2.5 24 1
v -2.5 27 2
v -2.5 27 1
v -1.5 0 1
v -1.5 0 -2
v -1.5 24 1
v -1.5 24 -2
v 5.5 22 2
v 5.5 22 1
v 5.5 25 1
v 5.5 27 2
v 5.5 27 1
v 6.5 21 2
v 6.5 21 1
v 6.5 22 2
v 6.5 22 1
v 6.5 24 4
v 6.5 24 2
v 6.5 26 4
v 6.5 26 2
v 6.5 27 2
v 6.5 27 1
v 6.5 28 2
v 6.5 28 1
v 7.5 20 2
v 7.5 20 1
v 7.5 21 2
v 7.5 21 1
v 7.5 23 3
v 7.5 23 2
v 7.5 24 3
v 7.5 24 2
v 7.5 26 5
v 7.5 26 4
v 7.5 26 2
v 7.5 27 5
v 7.5 27 2
v 7.5 28 2
v 7.5 28 1
v 7.5 29 2
v 7.5 29 1
v 8.5 22 3
v 8.5 22 2
v 8.5 23 3
v 8.5 23 2
v 8.5 27 6
v 8.5 27 5
v 8.5 27 2
v 8.5 28 6
v 8.5 28 2
v 11.5 26 5
v 11.5 26 3
v 11.5 27 5
v 11.5 27 3
v 12.5 24 4
v 12.5 24 3
v 12.5 26 4
v 12.5 26 3
v -12.5 24 4
v -12.5 24 3
v -12.5 26 4
v -12.5 26 3
v -11.5 26 5
v -11.5 26 3
v -11.5 27 5
v -11.5 27 3
v -8.5 22 3
v -8.5 22 2
v -8.5 23 3
v -8.5 23 2
v -8.5 27 6
v -8.5 27 5
v -8.5 27 2
v -8.5 28 6
v -8.5 28 2
v -7.5 20 2
v -7.5 20 1
v -7.5 21 2
v -7.5 21 1
v -7.5 23 3
v -7.5 23 2
v -7.5 24 3
v -7.5 24 2
v -7.5 26 5
v -7.5 26 4
v -7.5 26 2
v -7.5 27 5
v -7.5 27 2
v -7.5 28 2
v -7.5 28 1
v -7.5 29 2
v -7.5 29 1
v -6.5 21 2
v -6.5 21 1
v -6.5 22 2
v -6.5 22 1
v -6.5 24 4
v -6.5 24 2
v -6.5 26 4
v -6.5 26 2
v -6.5 27 2
v -6.5 27 1
v -6.5 28 2
v -6.5 28 1
v -5.5 22 2
v -5.5 22 1
v -5.5 25 1
v -5.5 27 2
v -5.5 27 1
v 1.5 0 1
v 1.5 0 -2
v 1.5 24 1
v 1.5 24 -2
v 2.5 24 2
v 2.5 24 1
v 2.5 27 2
v 2.5 27 1
v 4.5 24 1
v 4.5 24 -2
v 4.5 25 1
v 4.5 25 -2
v 7.5 24 4
v 7.5 24 3
v 7.5 26 4
v 7.5 26 3
v 8.5 26 5
v 8.5 26 3
v 8.5 27 5
v 8.5 27 3
v 9.5 25 1
v 9.5 25 -2
v 9.5 26 1
v 9.5 26 -2
v 11.5 22 3
v 11.5 22 2
v 11.5 23 3
v 11.5 23 2
v 11.5 26 1
v 11.5 26 -2
v 11.5 27 6
v 11.5 27 5
v 11.5 27 2
v 11.5 27 1
v 11.5 27 -2
v 11.5 28 6
v 11.5 28 2
v 12.5 20 2
v 12.5 20 1
v 12.5 21 2
v 12.5 21 1
v 12.5 23 3
v 12.5 23 2
v 12.5 24 3
v 12.5 24 2
v 12.5 26 5
v 12.5 26 4
v 12.5 26 2
v 12.5 27 5
v 12.5 27 2
v 12.5 28 2
v 12.5 28 1
v 12.5 29 2
v 12.5 29 1
v 13.5 21 2
v 13.5 21 1
v 13.5 22 2
v 13.5 22 1
v 13.5 24 4
v 13.5 24 2
v 13.5 26 4
v 13.5 26 2
v 13.5 27 2
v 13.5 27 1
v 13.5 28 2
v 13.5 28 1
v 14.5 22 2
v 14.5 22 1
v 14.5 27 2
v 14.5 27 1
v -11.5 27 6
v -11.5 28 6
v -8.5 27 6
v -8.5 28 6
v 8.5 27 6
v 8.5 28 6
v 11.5 27 6
v 11.5 28 6
v -12.5 26 5
v -12.5 27 5
v -11.5 26 5
v -11.5 27 5
v -8.5 26 5
v -8.5 27 5
v -7.5 26 5
v -7.5 27 5
v 7.5 26 5
v 7.5 27 5
v 8.5 26 5
v 8.5 27 5
v 11.5 26 5
v 11.5 27 5
v 12.5 26 5
v 12.5 27 5
v -13.5 24 4
v -13.5 26 4
v -12.5 24 4
v -12.5 26 4
v -7.5 24 4
v -7.5 26 4
v -6.5 24 4
v -6.5 26 4
v 6.5 24 4
v 6.5 26 4
v 7.5 24 4
v 7.5 26 4
v 12.5 24 4
v 12.5 26 4
v 13.5 24 4
v 13.5 26 4
v -12.5 23 3
v -12.5 24 3
v -12.5 26 3
v -11.5 22 3
v -11.5 23 3
v -11.5 26 3
v -11.5 27 3
v -8.5 22 3
v -8.5 23 3
v -8.5 26 3
v -8.5 27 3
v -7.5 23 3
v -7.5 24 3
v -7.5 26 3
v 7.5 23 3
v 7.5 24 3
v 7.5 26 3
v 8.5 22 3
v 8.5 23 3
v 8.5 26 3
v 8.5 27 3
v 11.5 22 3
v 11.5 23 3
v 11.5 26 3
v 11.5 27 3
v 12.5 23 3
v 12.5 24 3
v 12.5 26 3
v -14.5 22 2
v -14.5 27 2
v -13.5 21 2
v -13.5 22 2
v -13.5 24 2
v -13.5 26 2
v -13.5 27 2
v -13.5 28 2
v -12.5 20 2
v -12.5 21 2
v -12.5 23 2
v -12.5 24 2
v -12.5 26 2
v -12.5 27 2
v -12.5 28 2
v -12.5 29 2
v -11.5 22 2
v -11.5 23 2
v -11.5 27 2
v -11.5 28 2
v -8.5 22 2
v -8.5 23 2
v -8.5 27 2
v -8.5 28 2
v -7.5 20 2
v -7.5 21 2
v -7.5 23 2
v -7.5 24 2
v -7.5 26 2
v -7.5 27 2
v -7.5 28 2
v -7.5 29 2
v -6.5 21 2
v -6.5 22 2
v -6.5 24 2
v -6.5 26 2
v -6.5 27 2
v -6.5 28 2
v -5.5 22 2
v -5.5 27 2
v -2.5 24 2
v -2.5 27 2
v 2.5 24 2
v 2.5 27 2
v 5.5 22 2
v 5.5 27 2
v 6.5 21 2
v 6.5 22 2
v 6.5 24 2
v 6.5 26 2
v 6.5 27 2
v 6.5 28 2
v 7.5 20 2
v 7.5 21 2
v 7.5 23 2
v 7.5 24 2
v 7.5 26 2
v 7.5 27 2
v 7.5 28 2
v 7.5 29 2
v 8.5 22 2
v 8.5 23 2
v 8.5 27 2
v 8.5 28 2
v 11.5 22 2
v 11.5 23 2
v 11.5 27 2
v 11.5 28 2
v 12.5 20 2
v 12.5 21 2
v 12.5 23 2
v 12.5 24 2
v 12.5 26 2
v 12.5 27 2
v 12.5 28 2
v 12.5 29 2
v 13.5 21 2
v 13.5 22 2
v 13.5 24 2
v 13.5 26 2
v 13.5 27 2
v 13.5 28 2
v 14.5 22 2
v 14.5 27 2
v -5.5 25 1
v -5.5 27 1
v -4.5 24 1
v -4.5 25 1
v -2.5 24 1
v -2.5 27 1
v -1.5 0 1
v -1.5 24 1
v 1.5 0 1
v 1.5 24 1
v 2.5 24 1
v 2.5 27 1
v 4.5 24 1
v 4.5 25 1
v 5.5 25 1
v 5.5 27 1
v -14.5 22 1
v -14.5 27 1
v -13.5 21 1
v -13.5 22 1
v -13.5 27 1
v -13.5 28 1
v -12.5 20 1
v -12.5 21 1
v -12.5 28 1
v -12.5 29 1
v -11.5 26 1
v -11.5 27 1
v -9.5 25 1
v -9.5 26 1
v -7.5 20 1
v -7.5 21 1
v -7.5 28 1
v -7.5 29 1
v -6.5 21 1
v -6.5 22 1
v -6.5 27 1
v -6.5 28 1
v -5.5 22 1
v -5.5 25 1
v 5.5 22 1
v 5.5 25 1
v 6.5 21 1
v 6.5 22 1
v 6.5 27 1
v 6.5 28 1
v 7.5 20 1
v 7.5 21 1
v 7.5 28 1
v 7.5 29 1
v 9.5 25 1
v 9.5 26 1
v 11.5 26 1
v 11.5 27 1
v 12.5 20 1
v 12.5 21 1
v 12.5 28 1
v 12.5 29 1
v 13.5 21 1
v 13.5 22 1
v 13.5 27 1
v 13.5 28 1
v 14.5 22 1
v 14.5 27 1
v -11.5 26 -2
v -11.5 27 -2
v -9.5 25 -2
v -9.5 26 -2
v -4.5 24 -2
v -4.5 25 -2
v -1.5 0 -2
v -1.5 24 -2
v 1.5 0 -2
v 1.5 24 -2
v 4.5 24 -2
v 4.5 25 -2
v 9.5 25 -2
v 9.5 26 -2
v 11.5 26 -2
v 11.5 27 -2
v -1.5 0 1
v 1.5 0 1
v -1.5 0 -2
v 1.5 0 -2
v -12.5 20 2
v -7.5 20 2
v 7.5 20 2
v 12.5 20 2
v -12.5 20 1
v -7.5 20 1
v 7.5 20 1
v 12.5 20 1
v -13.5 21 2
v -12.5 21 2
v -7.5 21 2
v -6.5 21 2
v 6.5 21 2
v 7.5 21 2
v 12.5 21 2
v 13.5 21 2
v -13.5 21 1
v -12.5 21 1
v -7.5 21 1
v -6.5 21 1
v 6.5 21 1
v 7.5 21 1
v 12.5 21 1
v 13.5 21 1
v -11.5 22 3
v -8.5 22 3
v 8.5 22 3
v 11.5 22 3
v -14.5 22 2
v -13.5 22 2
v -11.5 22 2
v -8.5 22 2
v -6.5 22 2
v -5.5 22 2
v 5.5 22 2
v 6.5 22 2
v 8.5 22 2
v 11.5 22 2
v 13.5 22 2
v 14.5 22 2
v -14.5 22 1
v -13.5 22 1
v -6.5 22 1
v -5.5 22 1
v 5.5 22 1
v 6.5 22 1
v 13.5 22 1
v 14.5 22 1
v -12.5 23 3
v -11.5 23 3
v -8.5 23 3
v -7.5 23 3
v 7.5 23 3
v 8.5 23 3
v 11.5 23 3
v 12.5 23 3
v -12.5 23 2
v -11.5 23 2
v -8.5 23 2
v -7.5 23 2
v 7.5 23 2
v 8.5 23 2
v 11.5 23 2
v 12.5 23 2
v -13.5 24 4
v -12.5 24 4
v -7.5 24 4
v -6.5 24 4
v 6.5 24 4
v 7.5 24 4
v 12.5 24 4
v 13.5 24 4
v -12.5 24 3
v -7.5 24 3
v 7.5 24 3
v 12.5 24 3
v -13.5 24 2
v -12.5 24 2
v -7.5 24 2
v -6.5 24 2
v -2.5 24 2
v 2.5 24 2
v 6.5 24 2
v 7.5 24 2
v 12.5 24 2
v 13.5 24 2
v -4.5 24 1
v -2.5 24 1
v -1.5 24 1
v 1.5 24 1
v 2.5 24 1
v 4.5 24 1
v -4.5 24 -2
v -1.5 24 -2
v 1.5 24 -2
v 4.5 24 -2
v -9.5 25 1
v -5.5 25 1
v -4.5 25 1
v 4.5 25 1
v 5.5 25 1
v 9.5 25 1
v -9.5 25 -2
v -4.5 25 -2
v 4.5 25 -2
v 9.5 25 -2
v -12.5 26 5
v -11.5 26 5
v -8.5 26 5
v -7.5 26 5
v 7.5 26 5
v 8.5 26 5
v 11.5 26 5
v 12.5 26 5
v -12.5 26 4
v -7.5 26 4
v 7.5 26 4
v 12.5 26 4
v -12.5 26 3
v -11.5 26 3
v -8.5 26 3
v -7.5 26 3
v 7.5 26 3
v 8.5 26 3
v 11.5 26 3
v 12.5 26 3
v -11.5 26 1
v -9.5 26 1
v 9.5 26 1
v 11.5 26 1
v -11.5 26 -2
v -9.5 26 -2
v 9.5 26 -2
v 11.5 26 -2
v -11.5 27 6
v -8.5 27 6
v 8.5 27 6
v 11.5 27 6
v -11.5 27 5
v -8.5 27 5
v 8.5 27 5
v 11.5 27 5
v -11.5 27 3
v -8.5 27 3
v 8.5 27 3
v 11.5 27 3
v -13.5 26 4
v -12.5 26 4
v -7.5 26 4
v -6.5 26 4
v 6.5 26 4
v 7.5 26 4
v 12.5 26 4
v 13.5 26 4
v -13.5 26 2
v -12.5 26 2
v -7.5 26 2
v -6.5 26 2
v 6.5 26 2
v 7.5 26 2
v 12.5 26 2
v 13.5 26 2
v -12.5 27 5
v -11.5 27 5
v -8.5 27 5
v -7.5 27 5
v 7.5 27 5
v 8.5 27 5
v 11.5 27 5
v 12.5 27 5
v -14.5 27 2
v -13.5 27 2
v -12.5 27 2
v -11.5 27 2
v -8.5 27 2
v -7.5 27 2
v -6.5 27 2
v -5.5 27 2
v -2.5 27 2
v 2.5 27 2
v 5.5 27 2
v 6.5 27 2
v 7.5 27 2
v 8.5 27 2
v 11.5 27 2
v 12.5 27 2
v 13.5 27 2
v 14.5 27 2
v -14.5 27 1
v -13.5 27 1
v -11.5 27 1
v -6.5 27 1
v -5.5 27 1
v -2.5 27 1
v 2.5 27 1
v 5.5 27 1
v 6.5 27 1
v 11.5 27 1
v 13.5 27 1
v 14.5 27 1
v -11.5 27 -2
v 11.5 27 -2
v -11.5 28 6
v -8.5 28 6
v 8.5 28 6
v 11.5 28 6
v -13.5 28 2
v -12.5 28 2
v -11.5 28 2
v -8.5 28 2
v -7.5 28 2
v -6.5 28 2
v 6.5 28 2
v 7.5 28 2
v 8.5 28 2
v 11.5 28 2
v 12.5 28 2
v 13.5 28 2
v -13.5 28 1
v -12.5 28 1
v -7.5 28 1
v -6.5 28 1
v 6.5 28 1
v 7.5 28 1
v 12.5 28 1
v 13.5 28 1
v -12.5 29 2
v -7.5 29 2
v 7.5 29 2
v 12.5 29 2
v -12.5 29 1
v -7.5 29 1
v 7.5 29 1
v 12.5 29 1

# faces
f 3/4/1 2/4/1 1/4/1
f 4/4/1 2/4/1 3/4/1
f 7/4/1 6/4/1 5/4/1
f 8/4/1 6/4/1 7/4/1
f 11/4/1 10/4/1 9/4/1
f 12/4/1 10/4/1 11/4/1
f 15/4/1 14/4/1 13/4/1
f 16/4/1 14/4/1 15/4/1
f 19/4/1 18/4/1 17/4/1
f 20/4/1 18/4/1 19/4/1
f 23/1/1 22/1/1 21/1/1
f 24/1/1 22/1/1 23/1/1
f 28/4/1 26/4/1 25/4/1
f 28/4/1 27/4/1 26/4/1
f 29/4/1 27/4/1 28/4/1
f 32/4/1 31/4/1 30/4/1
f 33/4/1 31/4/1 32/4/1
f 36/1/1 35/1/1 34/1/1
f 37/1/1 35/1/1 36/1/1
f 43/4/1 39/4/1 38/4/1
f 44/4/1 39/4/1 43/4/1
f 45/4/1 42/4/1 41/4/1
f 45/4/1 41/4/1 40/4/1
f 46/4/1 42/4/1 45/4/1
f 49/4/1 48/4/1 47/4/1
f 50/4/1 48/4/1 49/4/1
f 53/4/1 52/4/1 51/4/1
f 54/4/1 52/4/1 53/4/1
f 57/4/1 56/4/1 55/4/1
f 58/4/1 56/4/1 57/4/1
f 61/4/1 60/4/1 59/4/1
f 62/4/1 60/4/1 61/4/1
f 65/4/1 64/4/1 63/4/1
f 66/4/1 64/4/1 65/4/1
f 69/3/1 68/3/1 67/3/1
f 70/3/1 68/3/1 69/3/1
f 73/4/1 72/4/1 71/4/1
f 74/4/1 73/4/1 71/4/1
f 75/4/1 73/4/1 74/4/1
f 78/4/1 77/4/1 76/4/1
f 79/4/1 77/4/1 78/4/1
f 82/4/1 81/4/1 80/4/1
f 83/4/1 81/4/1 82/4/1
f 86/4/1 85/4/1 84/4/1
f 87/4/1 85/4/1 86/4/1
f 90/4/1 89/4/1 88/4/1
f 91/4/1 89/4/1 90/4/1
f 94/2/1 93/2/1 92/2/1
f 95/2/1 93/2/1 94/2/1
f 99/4/1 97/4/1 96/4/1
f 99/4/1 98/4/1 97/4/1
f 100/4/1 98/4/1 99/4/1
f 103/4/1 102/4/1 101/4/1
f 104/4/1 102/4/1 103/4/1
f 107/2/1 106/2/1 105/2/1
f 108/2/1 106/2/1 107/2/1
f 112/4/1 110/4/1 109/4/1
f 112/4/1 111/4/1 110/4/1
f 113/4/1 111/4/1 112/4/1
f 116/4/1 115/4/1 114/4/1
f 117/4/1 115/4/1 116/4/1
f 120/4/1 119/4/1 118/4/1
f 121/4/1 119/4/1 120/4/1
f 122/4/2 123/4/2 124/4/2
f 124/4/2 123/4/2 125/4/2
f 126/4/2 127/4/2 128/4/2
f 128/4/2 127/4/2 129/4/2
f 130/1/2 131/1/2 132/1/2
f 132/1/2 131/1/2 133/1/2
f 134/4/2 135/4/2 137/4/2
f 135/4/2 136/4/2 137/4/2
f 137/4/2 136/4/2 138/4/2
f 139/4/2 140/4/2 141/4/2
f 141/4/2 140/4/2 142/4/2
f 143/1/2 144/1/2 145/1/2
f 145/1/2 144/1/2 146/1/2
f 147/4/2 148/4/2 150/4/2
f 148/4/2 149/4/2 150/4/2
f 150/4/2 149/4/2 151/4/2
f 152/4/2 153/4/2 154/4/2
f 154/4/2 153/4/2 155/4/2
f 156/4/2 157/4/2 158/4/2
f 158/4/2 157/4/2 159/4/2
f 160/4/2 161/4/2 162/4/2
f 162/4/2 161/4/2 163/4/2
f 164/4/2 165/4/2 166/4/2
f 166/4/2 165/4/2 167/4/2
f 168/4/2 169/4/2 170/4/2
f 168/4/2 170/4/2 171/4/2
f 171/4/2 170/4/2 172/4/2
f 173/3/2 174/3/2 175/3/2
f 175/3/2 174/3/2 176/3/2
f 177/4/2 178/4/2 179/4/2
f 179/4/2 178/4/2 180/4/2
f 181/4/2 182/4/2 183/4/2
f 183/4/2 182/4/2 184/4/2
f 185/4/2 186/4/2 187/4/2
f 187/4/2 186/4/2 188/4/2
f 189/4/2 190/4/2 191/4/2
f 191/4/2 190/4/2 192/4/2
f 193/4/2 194/4/2 195/4/2
f 195/4/2 194/4/2 196/4/2
f 197/2/2 198/2/2 199/2/2
f 199/2/2 198/2/2 200/2/2
f 201/4/2 202/4/2 206/4/2
f 206/4/2 202/4/2 207/4/2
f 204/4/2 205/4/2 208/4/2
f 203/4/2 204/4/2 208/4/2
f 208/4/2 205/4/2 209/4/2
f 210/4/2 211/4/2 212/4/2
f 212/4/2 211/4/2 213/4/2
f 214/2/2 215/2/2 216/2/2
f 216/2/2 215/2/2 217/2/2
f 218/4/2 219/4/2 221/4/2
f 219/4/2 220/4/2 221/4/2
f 221/4/2 220/4/2 222/4/2
f 223/4/2 224/4/2 225/4/2
f 225/4/2 224/4/2 226/4/2
f 227/4/2 228/4/2 229/4/2
f 229/4/2 228/4/2 230/4/2
f 231/4/2 232/4/2 233/4/2
f 233/4/2 232/4/2 234/4/2
f 235/4/2 236/4/2 237/4/2
f 237/4/2 236/4/2 238/4/2
f 239/4/2 240/4/2 241/4/2
f 241/4/2 240/4/2 242/4/2
f 245/4/3 244/4/3 243/4/3
f 246/4/3 244/4/3 245/4/3
f 249/4/3 248/4/3 247/4/3
f 250/4/3 248/4/3 249/4/3
f 253/4/3 252/4/3 251/4/3
f 254/4/3 252/4/3 253/4/3
f 257/4/3 256/4/3 255/4/3
f 258/4/3 256/4/3 257/4/3
f 261/4/3 260/4/3 259/4/3
f 262/4/3 260/4/3 261/4/3
f 265/4/3 264/4/3 263/4/3
f 266/4/3 264/4/3 265/4/3
f 269/4/3 268/4/3 267/4/3
f 270/4/3 268/4/3 269/4/3
f 273/4/3 272/4/3 271/4/3
f 274/4/3 272/4/3 273/4/3
f 277/4/3 276/4/3 275/4/3
f 278/4/3 276/4/3 277/4/3
f 281/4/3 280/4/3 279/4/3
f 282/4/3 280/4/3 281/4/3
f 287/1/3 284/1/3 283/1/3
f 287/1/3 285/1/3 284/1/3
f 288/1/3 285/1/3 287/1/3
f 290/1/3 287/1/3 286/1/3
f 290/1/3 289/1/3 288/1/3
f 290/1/3 288/1/3 287/1/3
f 291/1/3 289/1/3 290/1/3
f 292/1/3 289/1/3 291/1/3
f 293/1/3 289/1/3 292/1/3
f 294/1/3 292/1/3 291/1/3
f 295/1/3 292/1/3 294/1/3
f 296/1/3 292/1/3 295/1/3
f 301/2/3 298/2/3 297/2/3
f 301/2/3 299/2/3 298/2/3
f 302/2/3 299/2/3 301/2/3
f 304/2/3 302/2/3 301/2/3
f 304/2/3 303/2/3 302/2/3
f 304/2/3 301/2/3 300/2/3
f 305/2/3 303/2/3 304/2/3
f 306/2/3 303/2/3 305/2/3
f 307/2/3 303/2/3 306/2/3
f 308/2/3 306/2/3 305/2/3
f 309/2/3 306/2/3 308/2/3
f 310/2/3 306/2/3 309/2/3
f 314/4/3 312/4/3 311/4/3
f 315/4/3 312/4/3 314/4/3
f 316/4/3 312/4/3 315/4/3
f 317/4/3 312/4/3 316/4/3
f 320/4/3 314/4/3 313/4/3
f 320/4/3 315/4/3 314/4/3
f 321/4/3 315/4/3 320/4/3
f 322/4/3 315/4/3 321/4/3
f 323/4/3 317/4/3 316/4/3
f 323/4/3 318/4/3 317/4/3
f 324/4/3 318/4/3 323/4/3
f 325/4/3 318/4/3 324/4/3
f 327/4/3 321/4/3 320/4/3
f 327/4/3 320/4/3 319/4/3
f 328/4/3 321/4/3 327/4/3
f 329/4/3 326/4/3 325/4/3
f 329/4/3 325/4/3 324/4/3
f 330/4/3 326/4/3 329/4/3
f 331/4/3 327/4/3 319/4/3
f 334/4/3 326/4/3 330/4/3
f 335/4/3 332/4/3 331/4/3
f 335/4/3 331/4/3 319/4/3
f 336/4/3 332/4/3 335/4/3
f 337/4/3 332/4/3 336/4/3
f 340/4/3 334/4/3 333/4/3
f 341/4/3 326/4/3 334/4/3
f 341/4/3 334/4/3 340/4/3
f 342/4/3 326/4/3 341/4/3
f 343/4/3 338/4/3 337/4/3
f 343/4/3 337/4/3 336/4/3
f 344/4/3 338/4/3 343/4/3
f 345/4/3 338/4/3 344/4/3
f 346/4/3 340/4/3 339/4/3
f 346/4/3 341/4/3 340/4/3
f 347/4/3 341/4/3 346/4/3
f 348/4/3 341/4/3 347/4/3
f 349/4/3 345/4/3 344/4/3
f 349/4/3 347/4/3 346/4/3
f 349/4/3 346/4/3 345/4/3
f 350/4/3 347/4/3 349/4/3
f 353/4/3 352/4/3 351/4/3
f 354/4/3 352/4/3 353/4/3
f 358/4/3 356/4/3 355/4/3
f 359/4/3 356/4/3 358/4/3
f 360/4/3 356/4/3 359/4/3
f 361/4/3 356/4/3 360/4/3
f 364/4/3 358/4/3 357/4/3
f 364/4/3 359/4/3 358/4/3
f 365/4/3 359/4/3 364/4/3
f 366/4/3 359/4/3 365/4/3
f 367/4/3 361/4/3 360/4/3
f 367/4/3 362/4/3 361/4/3
f 368/4/3 362/4/3 367/4/3
f 369/4/3 362/4/3 368/4/3
f 371/4/3 365/4/3 364/4/3
f 371/4/3 364/4/3 363/4/3
f 372/4/3 365/4/3 371/4/3
f 373/4/3 369/4/3 368/4/3
f 373/4/3 370/4/3 369/4/3
f 374/4/3 370/4/3 373/4/3
f 375/4/3 371/4/3 363/4/3
f 378/4/3 370/4/3 374/4/3
f 379/4/3 376/4/3 375/4/3
f 379/4/3 375/4/3 363/4/3
f 380/4/3 376/4/3 379/4/3
f 381/4/3 376/4/3 380/4/3
f 384/4/3 378/4/3 377/4/3
f 385/4/3 370/4/3 378/4/3
f 385/4/3 378/4/3 384/4/3
f 386/4/3 370/4/3 385/4/3
f 387/4/3 382/4/3 381/4/3
f 387/4/3 381/4/3 380/4/3
f 388/4/3 382/4/3 387/4/3
f 389/4/3 382/4/3 388/4/3
f 390/4/3 384/4/3 383/4/3
f 390/4/3 385/4/3 384/4/3
f 391/4/3 385/4/3 390/4/3
f 392/4/3 385/4/3 391/4/3
f 393/4/3 389/4/3 388/4/3
f 393/4/3 391/4/3 390/4/3
f 393/4/3 390/4/3 389/4/3
f 394/4/3 391/4/3 393/4/3
f 398/4/3 396/4/3 395/4/3
f 399/4/3 398/4/3 397/4/3
f 400/4/3 396/4/3 398/4/3
f 400/4/3 398/4/3 399/4/3
f 403/3/3 402/3/3 401/3/3
f 404/3/3 402/3/3 403/3/3
f 407/4/3 406/4/3 405/4/3
f 408/4/3 406/4/3 407/4/3
f 409/4/3 406/4/3 408/4/3
f 410/4/3 406/4/3 409/4/3
f 411/4/4 412/4/4 414/4/4
f 414/4/4 412/4/4 415/4/4
f 413/4/4 414/4/4 418/4/4
f 415/4/4 416/4/4 418/4/4
f 414/4/4 415/4/4 418/4/4
f 418/4/4 416/4/4 419/4/4
f 417/4/4 418/4/4 421/4/4
f 419/4/4 420/4/4 421/4/4
f 418/4/4 419/4/4 421/4/4
f 421/4/4 420/4/4 422/4/4
f 417/4/4 421/4/4 423/4/4
f 423/4/4 421/4/4 424/4/4
f 417/4/4 423/4/4 425/4/4
f 425/4/4 423/4/4 426/4/4
f 422/4/4 420/4/4 427/4/4
f 427/4/4 420/4/4 428/4/4
f 426/4/4 423/4/4 429/4/4
f 429/4/4 423/4/4 430/4/4
f 422/4/4 427/4/4 431/4/4
f 431/4/4 427/4/4 432/4/4
f 430/4/4 423/4/4 433/4/4
f 433/4/4 423/4/4 434/4/4
f 435/4/4 436/4/4 438/4/4
f 437/4/4 438/4/4 442/4/4
f 439/4/4 440/4/4 443/4/4
f 441/4/4 442/4/4 445/4/4
f 438/4/4 436/4/4 445/4/4
f 442/4/4 438/4/4 445/4/4
f 445/4/4 446/4/4 447/4/4
f 439/4/4 443/4/4 448/4/4
f 443/4/4 444/4/4 448/4/4
f 445/4/4 447/4/4 449/4/4
f 447/4/4 448/4/4 449/4/4
f 441/4/4 445/4/4 449/4/4
f 449/4/4 448/4/4 450/4/4
f 448/4/4 444/4/4 451/4/4
f 450/4/4 448/4/4 451/4/4
f 451/4/4 444/4/4 452/4/4
f 450/4/4 451/4/4 453/4/4
f 453/4/4 451/4/4 454/4/4
f 454/4/4 451/4/4 455/4/4
f 455/4/4 451/4/4 456/4/4
f 454/4/4 455/4/4 457/4/4
f 457/4/4 455/4/4 458/4/4
f 459/4/4 460/4/4 462/4/4
f 461/4/4 462/4/4 464/4/4
f 463/4/4 464/4/4 466/4/4
f 465/3/4 466/3/4 467/3/4
f 466/4/4 464/4/4 468/4/4
f 467/3/4 466/3/4 468/3/4
f 468/4/4 464/4/4 469/4/4
f 464/4/4 462/4/4 470/4/4
f 469/4/4 464/4/4 470/4/4
f 470/4/4 462/4/4 471/4/4
f 462/4/4 460/4/4 472/4/4
f 471/4/4 462/4/4 472/4/4
f 472/4/4 460/4/4 473/4/4
f 473/4/4 460/4/4 474/4/4
f 477/3/5 476/3/5 475/3/5
f 478/3/5 476/3/5 477/3/5
f 483/4/5 480/4/5 479/4/5
f 484/4/5 480/4/5 483/4/5
f 485/4/5 482/4/5 481/4/5
f 486/4/5 482/4/5 485/4/5
f 495/4/5 488/4/5 487/4/5
f 496/4/5 488/4/5 495/4/5
f 497/4/5 490/4/5 489/4/5
f 498/4/5 490/4/5 497/4/5
f 499/4/5 492/4/5 491/4/5
f 500/4/5 492/4/5 499/4/5
f 501/4/5 494/4/5 493/4/5
f 502/4/5 494/4/5 501/4/5
f 509/1/5 504/1/5 503/1/5
f 510/1/5 504/1/5 509/1/5
f 515/2/5 506/2/5 505/2/5
f 516/2/5 506/2/5 515/2/5
f 519/4/5 508/4/5 507/4/5
f 520/4/5 508/4/5 519/4/5
f 521/4/5 512/4/5 511/4/5
f 522/4/5 512/4/5 521/4/5
f 523/4/5 514/4/5 513/4/5
f 524/4/5 514/4/5 523/4/5
f 525/4/5 518/4/5 517/4/5
f 526/4/5 518/4/5 525/4/5
f 535/1/5 528/1/5 527/1/5
f 536/1/5 528/1/5 535/1/5
f 537/1/5 530/1/5 529/1/5
f 538/1/5 530/1/5 537/1/5
f 539/2/5 532/2/5 531/2/5
f 540/2/5 532/2/5 539/2/5
f 541/2/5 534/2/5 533/2/5
f 542/2/5 534/2/5 541/2/5
f 551/4/5 544/4/5 543/4/5
f 552/4/5 546/4/5 545/4/5
f 553/4/5 548/4/5 547/4/5
f 554/4/5 550/4/5 549/4/5
f 555/4/5 551/4/5 543/4/5
f 556/4/5 551/4/5 555/4/5
f 557/4/5 546/4/5 552/4/5
f 558/4/5 546/4/5 557/4/5
f 561/4/5 553/4/5 547/4/5
f 562/4/5 553/4/5 561/4/5
f 563/4/5 550/4/5 554/4/5
f 564/4/5 550/4/5 563/4/5
f 566/4/5 560/4/5 559/4/5
f 567/4/5 560/4/5 566/4/5
f 568/4/5 560/4/5 567/4/5
f 569/4/5 560/4/5 568/4/5
f 571/4/5 566/4/5 565/4/5
f 571/4/5 567/4/5 566/4/5
f 572/4/5 567/4/5 571/4/5
f 573/4/5 570/4/5 569/4/5
f 573/4/5 569/4/5 568/4/5
f 574/4/5 570/4/5 573/4/5
f 581/4/5 576/4/5 575/4/5
f 581/4/5 577/4/5 576/4/5
f 582/4/5 577/4/5 581/4/5
f 583/4/5 580/4/5 579/4/5
f 583/4/5 579/4/5 578/4/5
f 584/4/5 580/4/5 583/4/5
f 593/4/5 586/4/5 585/4/5
f 594/4/5 588/4/5 587/4/5
f 595/4/5 590/4/5 589/4/5
f 596/4/5 592/4/5 591/4/5
f 597/4/5 586/4/5 593/4/5
f 598/4/5 586/4/5 597/4/5
f 599/4/5 594/4/5 587/4/5
f 600/4/5 594/4/5 599/4/5
f 601/4/5 590/4/5 595/4/5
f 602/4/5 590/4/5 601/4/5
f 603/4/5 596/4/5 591/4/5
f 604/4/5 596/4/5 603/4/5
f 609/4/5 606/4/5 605/4/5
f 610/4/5 606/4/5 609/4/5
f 611/4/5 608/4/5 607/4/5
f 612/4/5 608/4/5 611/4/5
f 617/4/5 614/4/5 613/4/5
f 618/4/5 614/4/5 617/4/5
f 619/4/5 616/4/5 615/4/5
f 620/4/5 616/4/5 619/4/5
f 621/4/5 618/4/5 617/4/5
f 622/4/5 618/4/5 621/4/5
f 623/4/5 620/4/5 619/4/5
f 624/4/5 620/4/5 623/4/5
f 625/4/6 626/4/6 633/4/6
f 633/4/6 626/4/6 634/4/6
f 627/4/6 628/4/6 635/4/6
f 635/4/6 628/4/6 636/4/6
f 629/4/6 630/4/6 637/4/6
f 637/4/6 630/4/6 638/4/6
f 631/4/6 632/4/6 639/4/6
f 639/4/6 632/4/6 640/4/6
f 641/4/6 642/4/6 651/4/6
f 651/4/6 642/4/6 652/4/6
f 643/4/6 644/4/6 653/4/6
f 653/4/6 644/4/6 654/4/6
f 645/4/6 646/4/6 661/4/6
f 661/4/6 646/4/6 662/4/6
f 647/4/6 648/4/6 663/4/6
f 663/4/6 648/4/6 664/4/6
f 649/4/6 650/4/6 667/4/6
f 667/4/6 650/4/6 668/4/6
f 655/4/6 656/4/6 670/4/6
f 670/4/6 656/4/6 671/4/6
f 657/4/6 658/4/6 672/4/6
f 672/4/6 658/4/6 673/4/6
f 659/4/6 660/4/6 674/4/6
f 674/4/6 660/4/6 675/4/6
f 665/4/6 666/4/6 677/4/6
f 677/4/6 666/4/6 678/4/6
f 675/4/6 676/4/6 679/4/6
f 672/4/6 673/4/6 679/4/6
f 670/4/6 671/4/6 679/4/6
f 674/4/6 675/4/6 679/4/6
f 673/4/6 674/4/6 679/4/6
f 671/4/6 672/4/6 679/4/6
f 669/4/6 670/4/6 679/4/6
f 679/4/6 676/4/6 680/4/6
f 681/4/6 682/4/6 687/4/6
f 687/4/6 682/4/6 688/4/6
f 683/4/6 684/4/6 693/4/6
f 693/4/6 684/4/6 694/4/6
f 685/4/6 686/4/6 697/4/6
f 697/4/6 686/4/6 698/4/6
f 689/4/6 690/4/6 699/4/6
f 699/4/6 690/4/6 700/4/6
f 691/4/6 692/4/6 701/4/6
f 701/4/6 692/4/6 702/4/6
f 695/4/6 696/4/6 703/4/6
f 703/4/6 696/4/6 704/4/6
f 705/4/6 706/4/6 709/4/6
f 709/4/6 706/4/6 710/4/6
f 707/4/6 708/4/6 711/4/6
f 711/4/6 708/4/6 712/4/6
